PathFileType	4	(X/Y/Z)	OpenSim_Sub07_EMGStiffKnee_Gyro.trc
DataRate	CameraRate	NumFrames	NumMarkers	Units	OrigDataRate	OrigDataStartFrame	OrigNumFrames
100	100	24	8	m	100	5542	7388
Frame#	Time	torso_imu_offset_imu	pelvis_imu_offset_imu	tibia_r_imu_offset_imu	femur_r_imu_offset_imu	tibia_l_imu_offset_imu	femur_l_imu_offset_imu	toes_r_imu_offset_imu	toes_l_imu_offset_imu
				X1	Y1	Z1	X2	Y2	Z2	X3	Y3	Z3	X4	Y4	Z4	X5	Y5	Z5	X6	Y6	Z6	X7	Y7	Z7	X8		Y8	Z8	

5542	55.41000000	0.18738129	0.13526659	-0.04086692	-0.06295091	0.11854799	0.33022323	-1.19794844	0.22291775	2.15750160	0.43175459	-0.40297495	1.55393782	0.08219357	0.02817388	0.48283435	0.19711566	-0.19011803	0.80079543	-0.70601870	3.14563029	-0.92304834	0.09159229	-0.19635742	0.02866769
5543	55.42000000	0.17705009	0.14525532	-0.03630867	-0.06942425	0.12559256	0.28764679	-0.71401736	0.39514171	2.55356952	0.55741441	-0.37208313	1.42037776	0.07158619	0.03919084	0.50232717	-0.04164669	-0.19659810	0.81033738	-0.57202576	3.18851692	-0.51068278	0.09665319	-0.15435938	0.02213315
5544	55.43000000	0.16022087	0.15816352	-0.03382400	-0.06067420	0.14059305	0.28589175	-0.28515107	0.48080711	2.84952112	0.65228480	-0.32209137	1.30109194	0.04767261	0.05067115	0.48920008	-0.23334549	-0.21061402	0.83386115	-0.39669570	3.25816863	-0.15492449	0.09274606	-0.18456416	0.03590909
5545	55.44000000	0.14990004	0.16803343	-0.03098536	-0.04263940	0.15592659	0.30437864	0.03423018	0.62480476	3.02066346	0.74494115	-0.22990692	1.20239552	0.05009253	0.04788514	0.45152362	-0.39044791	-0.22636075	0.86652947	-0.21253763	3.44184065	0.10807684	0.06428779	-0.16642240	0.05636307
5546	55.45000000	0.14570318	0.17464408	-0.02803448	-0.05891177	0.17874311	0.25946458	0.36764860	0.84716580	3.12582916	0.85038503	-0.10764719	1.12721095	0.04052841	0.03808199	0.43457918	-0.50772645	-0.23638093	0.88586456	-0.08572548	3.68673644	0.26850107	0.06696932	-0.13474063	0.07046949
5547	55.46000000	0.13585974	0.17543026	-0.02374262	-0.06153479	0.21199655	0.23819531	0.67444592	1.01607628	3.21870585	0.95339856	0.01568070	1.07587750	0.07143697	0.03912154	0.44779146	-0.53135243	-0.24341154	0.88293158	-0.10030536	3.92420596	0.35990944	0.03548150	-0.13083551	0.08841014
5548	55.47000000	0.12431479	0.17885745	-0.02881773	-0.07222313	0.23484114	0.21987000	0.84784246	1.17698350	3.32102972	1.03738983	0.09977260	1.02270436	0.08135233	0.04054982	0.43477231	-0.47881386	-0.26439059	0.88590392	-0.23586191	4.13229548	0.39219849	-0.01265286	-0.11027386	0.10093083
5549	55.48000000	0.11577993	0.17909282	-0.03156538	-0.07160733	0.25390330	0.20881219	1.00686767	1.41329922	3.45192077	1.07434071	0.10890787	0.96010689	0.06902512	0.04752592	0.41167775	-0.43022521	-0.28497869	0.91705659	-0.40514677	4.34801780	0.38605831	-0.01775049	-0.14183282	0.11218913
5550	55.49000000	0.11199427	0.17739676	-0.03204357	-0.05047766	0.28566601	0.20928755	1.27130948	1.66921212	3.59928476	1.02872177	0.06906265	0.88847499	0.07774278	0.04540018	0.40096008	-0.40746616	-0.28873120	0.93343050	-0.51660590	4.57856653	0.35930101	-0.03000146	-0.11133783	0.10614482
5551	55.50000000	0.09068867	0.18156116	-0.02962601	-0.03305149	0.31938258	0.18567095	1.52800576	1.89124728	3.72077417	0.91857264	-0.01058032	0.79458720	0.10194355	0.03749575	0.42312713	-0.36959212	-0.28361893	0.89260320	-0.54908516	4.82992214	0.31952308	0.02602182	-0.09544201	0.08621069
5552	55.51000000	0.06284682	0.18972203	-0.02590723	-0.02860203	0.34308015	0.16850573	1.81900063	2.10471159	3.84791181	0.78743947	-0.06718987	0.68977504	0.07285246	0.05146708	0.45492383	-0.26620091	-0.27040289	0.85500345	-0.57958519	4.99869830	0.28794173	0.04441479	-0.05183205	0.07685863
5553	55.52000000	0.05237199	0.19915357	-0.02793842	-0.00229092	0.36394227	0.22756087	2.23930485	2.35427373	4.02783173	0.59278996	-0.07214202	0.56015604	0.03544035	0.06036606	0.45598702	-0.13797148	-0.24774668	0.84417016	-0.67867901	4.99046453	0.30098412	0.01362921	-0.10851742	0.08832706
5554	55.53000000	0.02541126	0.21452910	-0.01817784	0.00076982	0.34983644	0.21297531	2.53901891	2.67216483	4.12255126	0.25599130	-0.06761666	0.42022819	0.02516481	0.05833581	0.45636478	-0.05044921	-0.22220050	0.81203270	-0.79220737	4.83154138	0.37574937	0.06757337	-0.04938289	0.08101037
5555	55.54000000	0.00428693	0.22748367	-0.00674692	0.01621021	0.31030204	0.21692265	2.29625228	2.99342057	4.09861791	-0.17948145	-0.08428652	0.30362659	0.04782193	0.06772875	0.50431925	0.02732529	-0.18777182	0.77017824	-0.86020359	4.63486627	0.49166536	0.08353173	-0.04481561	0.08866310
5556	55.55000000	-0.01020209	0.21830322	0.00468714	0.07270360	0.25163311	0.27165727	1.37268455	3.12957958	4.17210136	-0.56630138	-0.13143918	0.20450207	0.13345385	0.09310478	0.52580186	0.11821744	-0.16121448	0.76124878	-0.97911594	4.38152190	0.59279679	0.01203548	-0.11156381	0.11858593
5557	55.56000000	-0.02239544	0.20664861	0.02188646	0.12398476	0.17422474	0.24608735	-0.10301361	2.94787558	4.24101222	-0.91129438	-0.20134793	0.04995374	0.19067993	0.10049483	0.53505887	0.14651629	-0.15193856	0.72641696	-1.09838455	4.12273927	0.47776745	-0.01352827	-0.17225337	0.15675776
5558	55.57000000	-0.04054515	0.19687656	0.04404905	0.20094418	0.08476743	0.23254791	-1.53288883	2.64253157	4.04604135	-1.29080768	-0.24481625	-0.16368875	0.30714152	0.10766159	0.57017821	0.11655693	-0.15496096	0.64172397	-1.12058509	4.19487810	0.15324758	-0.02040539	-0.21453858	0.18855760
5559	55.58000000	-0.07387593	0.18430166	0.06199626	0.26555168	-0.00574136	0.21619923	-2.26385363	2.39246853	3.74585725	-1.65967791	-0.15196473	-0.39845230	0.36588868	0.12516646	0.63345376	0.12466813	-0.16064400	0.58011514	-1.13068522	4.45307267	-0.17330939	-0.04006747	-0.24832595	0.20533116
5560	55.59000000	-0.11785898	0.15981085	0.06754913	0.30555266	-0.08077322	0.19517793	-2.35067423	2.12911336	3.57765526	-2.02806171	-0.01933643	-0.67785828	0.37243160	0.14987734	0.69809830	0.14776258	-0.16713625	0.54273798	-1.13971608	4.45091569	-0.40555814	-0.02881781	-0.27329308	0.21405967
5561	55.60000000	-0.16024090	0.12555538	0.07163457	0.33898065	-0.14217349	0.17210397	-2.18931491	1.85194331	3.46183300	-2.12279729	-0.00519174	-1.08135441	0.32553518	0.16667059	0.74478579	0.11468893	-0.17725158	0.52793503	-1.04819123	4.23681509	-0.52841083	-0.05401787	-0.31534579	0.21452548
5562	55.61000000	-0.18847724	0.08484181	0.07439488	0.36181152	-0.18105947	0.14635598	-1.85479583	1.65200359	3.27331548	-1.65569940	-0.03648980	-1.54925581	0.24711565	0.18159984	0.79028529	0.00766849	-0.18473373	0.50521199	-0.78693743	3.97890466	-0.52643781	-0.08144016	-0.43274987	0.21871114
5563	55.62000000	-0.21363924	0.03932930	0.08161811	0.36651466	-0.20917427	0.13061670	-1.26767189	1.55339835	3.03566038	-1.01627275	0.04083809	-1.79226501	0.17986242	0.18672598	0.84536742	-0.12520805	-0.19681563	0.47376051	-0.48608985	3.77559516	-0.34571634	-0.06596411	-0.46586168	0.21086048
5564	55.63000000	-0.23592187	-0.00978786	0.09688235	0.35589141	-0.23678790	0.11923944	-0.64816967	1.41384492	2.78267674	-0.43185377	0.24337671	-1.66124953	0.17866230	0.20334469	0.91739908	-0.22477551	-0.19550569	0.47164662	-0.34004443	3.51477012	-0.01987695	-0.03083838	-0.47682160	0.18649854
5565	55.64000000	-0.25431848	-0.06529672	0.11129673	0.31375565	-0.26670243	0.10569348	-0.27987010	1.17742657	2.43917910	0.06940789	0.39803155	-1.31716309	0.21449858	0.23555158	0.98107547	-0.29074231	-0.18904561	0.46746290	-0.32820847	3.09594223	0.31788281	-0.00093135	-0.55203987	0.17267807
